<?xml version="1.0" encoding="UTF-8"?>
<svg width="307px" height="40px" viewBox="0 0 307 40" version="1.1" xmlns="http://www.w3.org/2000/svg" xmlns:xlink="http://www.w3.org/1999/xlink">
    <title>logo-dark</title>
    <g id="Page-1" stroke="none" stroke-width="1" fill="none" fill-rule="evenodd">
        <g id="logo-dark" fill-rule="nonzero">
            <g id="Plone" fill="#0095D3">
                <circle id="Oval" cx="17.5" cy="11.5" r="4.5"></circle>
                <path d="M31,20.4984675 C31,22.9901133 28.98625,25 26.5,25 C24.0147727,25 22,22.9849991 22,20.4984675 C22,18.0098902 24.0229545,16 26.5,16 C28.9872727,15.996935 31,18.0119359 31,20.4984675 Z" id="Path"></path>
                <circle id="Oval" cx="17.5" cy="28.5" r="4.5"></circle>
                <path d="M20,0 C8.9544315,0.000983139163 0.000983139163,8.95344836 0,20 C0.000983139163,31.0445854 8.95148208,39.9980337 20,40 C31.0455685,39.9980337 39.9980337,31.0495011 40,20 C39.9980337,8.95344836 31.0455685,0.000983139163 20,0 Z M31.2559603,31.2559603 C28.3674974,34.1404906 24.3975815,35.9180062 19.9980337,35.9189893 C15.5945534,35.9180062 11.62857,34.1375412 8.7410903,31.2559603 C5.85754314,28.3674974 4.08002753,24.3975815 4.07904439,20 C4.08002753,15.5975028 5.85950941,11.6305363 8.74207344,8.74305658 C11.6305363,5.85852627 15.5965197,4.08101067 19.9990169,4.08002753 C24.401514,4.08101067 28.3684806,5.86147569 31.2559603,8.74305658 C34.1414737,11.6315194 35.9180062,15.6014354 35.9199725,20 C35.9189893,24.4005309 34.1404906,28.3674974 31.2559603,31.2559603 Z" id="Shape"></path>
            </g>
            <g id="Text" transform="translate(48.000000, 7.000000)">
                <path d="M2.25585938,4.44335938 C3.48632812,4.44335938 4.49804688,3.45898438 4.49804688,2.22851562 C4.49804688,0.984375 3.48632812,0 2.25585938,0 C1.02539062,0 0,0.984375 0,2.22851562 C0,3.45898438 1.02539062,4.44335938 2.25585938,4.44335938 Z M4.23828125,21.8066406 L4.23828125,6.75390625 L0.24609375,6.75390625 L0.24609375,21.8066406 L4.23828125,21.8066406 Z M14.0058594,21.8613281 C14.7714844,21.8613281 15.5097656,21.7792969 16.0019531,21.6835938 L16.0019531,18.7167969 C15.6191406,18.7578125 15.3457031,18.7851562 14.8261719,18.7851562 C13.4726562,18.7851562 12.8984375,18.1835938 12.8984375,16.8300781 L12.8984375,9.76171875 L16.0019531,9.76171875 L16.0019531,6.75390625 L12.8984375,6.75390625 L12.8984375,3.15820312 L8.86523438,3.15820312 L8.86523438,6.75390625 L6.54101562,6.75390625 L6.54101562,9.76171875 L8.86523438,9.76171875 L8.86523438,17.7460938 C8.86523438,20.671875 10.3417969,21.8613281 14.0058594,21.8613281 Z M27.875,15.640625 L27.875,12.0449219 L18.7832031,12.0449219 L18.7832031,15.640625 L27.875,15.640625 Z M37.5878906,22.1210938 C41.4433594,22.1210938 44.1914062,20.1796875 44.1914062,17.1992188 L44.1914062,17.1855469 C44.1914062,14.9570312 42.7832031,13.6992188 39.7753906,13.0566406 L37.2734375,12.5234375 C35.7148438,12.1816406 35.1542969,11.7167969 35.1542969,10.9101562 L35.1542969,10.8964844 C35.1542969,9.88476562 36.1386719,9.2421875 37.5195312,9.2421875 C39.0097656,9.2421875 39.8984375,9.99414062 40.1171875,10.8007812 L40.1308594,10.8691406 L43.8359375,10.8691406 L43.8359375,10.8144531 C43.671875,8.39453125 41.484375,6.42578125 37.5332031,6.42578125 C33.7734375,6.42578125 31.2578125,8.3125 31.2578125,11.1425781 L31.2578125,11.15625 C31.2578125,13.4121094 32.6796875,14.8203125 35.5507812,15.4355469 L38.0664062,15.96875 C39.5976562,16.3105469 40.1992188,16.8164062 40.1992188,17.6230469 L40.1992188,17.6503906 C40.1992188,18.6484375 39.1601562,19.3046875 37.6289062,19.3046875 C36.0566406,19.3046875 35.140625,18.6347656 34.8261719,17.7050781 L34.7988281,17.6503906 L30.875,17.6503906 L30.8886719,17.7050781 C31.1757812,20.2890625 33.5,22.1210938 37.5878906,22.1210938 Z M50.9511719,26.796875 L50.9511719,19.4003906 L51.1972656,19.4003906 C51.9628906,21.0410156 53.6445312,22.0390625 55.7089844,22.0390625 C59.5234375,22.0390625 61.8203125,19.1269531 61.8203125,14.2871094 L61.8203125,14.2597656 C61.8203125,9.4609375 59.46875,6.5078125 55.7089844,6.5078125 C53.5761719,6.5078125 51.9765625,7.46484375 51.1972656,9.078125 L50.9511719,9.078125 L50.9511719,6.75390625 L46.9589844,6.75390625 L46.9589844,26.796875 L50.9511719,26.796875 Z M54.3417969,18.7304688 C52.25,18.7304688 50.9101562,17.0488281 50.9101562,14.2871094 L50.9101562,14.2597656 C50.9101562,11.4980469 52.2363281,9.81640625 54.3417969,9.81640625 C56.4609375,9.81640625 57.7597656,11.4980469 57.7597656,14.2597656 L57.7597656,14.2871094 C57.7597656,17.0488281 56.4472656,18.7304688 54.3417969,18.7304688 Z M66.6113281,4.44335938 C67.8417969,4.44335938 68.8535156,3.45898438 68.8535156,2.22851562 C68.8535156,0.984375 67.8417969,0 66.6113281,0 C65.3808594,0 64.3554688,0.984375 64.3554688,2.22851562 C64.3554688,3.45898438 65.3808594,4.44335938 66.6113281,4.44335938 Z M68.59375,21.8066406 L68.59375,6.75390625 L64.6015625,6.75390625 L64.6015625,21.8066406 L68.59375,21.8066406 Z M76.1054688,21.8066406 L76.1054688,13.3847656 C76.1054688,11.2519531 77.5410156,9.953125 79.8105469,9.953125 C80.4257812,9.953125 81.0410156,10.0488281 81.6425781,10.1855469 L81.6425781,6.69921875 C81.2460938,6.58984375 80.6855469,6.5078125 80.1523438,6.5078125 C78.1972656,6.5078125 76.8300781,7.46484375 76.3515625,9.09179688 L76.1054688,9.09179688 L76.1054688,6.75390625 L72.1132812,6.75390625 L72.1132812,21.8066406 L76.1054688,21.8066406 Z M85.8320312,4.44335938 C87.0625,4.44335938 88.0742188,3.45898438 88.0742188,2.22851562 C88.0742188,0.984375 87.0625,0 85.8320312,0 C84.6015625,0 83.5761719,0.984375 83.5761719,2.22851562 C83.5761719,3.45898438 84.6015625,4.44335938 85.8320312,4.44335938 Z M87.8144531,21.8066406 L87.8144531,6.75390625 L83.8222656,6.75390625 L83.8222656,21.8066406 L87.8144531,21.8066406 Z M97.5820312,21.8613281 C98.3476562,21.8613281 99.0859375,21.7792969 99.578125,21.6835938 L99.578125,18.7167969 C99.1953125,18.7578125 98.921875,18.7851562 98.4023438,18.7851562 C97.0488281,18.7851562 96.4746094,18.1835938 96.4746094,16.8300781 L96.4746094,9.76171875 L99.578125,9.76171875 L99.578125,6.75390625 L96.4746094,6.75390625 L96.4746094,3.15820312 L92.4414062,3.15820312 L92.4414062,6.75390625 L90.1171875,6.75390625 L90.1171875,9.76171875 L92.4414062,9.76171875 L92.4414062,17.7460938 C92.4414062,20.671875 93.9179688,21.8613281 97.5820312,21.8613281 Z M104.068359,26.796875 L109.755859,0.998046875 L106.078125,0.998046875 L100.390625,26.796875 L104.068359,26.796875 Z" id="it-spirit/" fill="#E6FAF2"></path>
                <path d="M115.244141,26.796875 L115.244141,19.4003906 L115.490234,19.4003906 C116.255859,21.0410156 117.9375,22.0390625 120.001953,22.0390625 C123.816406,22.0390625 126.113281,19.1269531 126.113281,14.2871094 L126.113281,14.2597656 C126.113281,9.4609375 123.761719,6.5078125 120.001953,6.5078125 C117.869141,6.5078125 116.269531,7.46484375 115.490234,9.078125 L115.244141,9.078125 L115.244141,6.75390625 L111.251953,6.75390625 L111.251953,26.796875 L115.244141,26.796875 Z M118.634766,18.7304688 C116.542969,18.7304688 115.203125,17.0488281 115.203125,14.2871094 L115.203125,14.2597656 C115.203125,11.4980469 116.529297,9.81640625 118.634766,9.81640625 C120.753906,9.81640625 122.052734,11.4980469 122.052734,14.2597656 L122.052734,14.2871094 C122.052734,17.0488281 120.740234,18.7304688 118.634766,18.7304688 Z M132.996094,21.8066406 L132.996094,0.998046875 L129.003906,0.998046875 L129.003906,21.8066406 L132.996094,21.8066406 Z M143.310547,22.1210938 C147.945312,22.1210938 150.734375,19.1953125 150.734375,14.2871094 L150.734375,14.2597656 C150.734375,9.39257812 147.904297,6.42578125 143.310547,6.42578125 C138.716797,6.42578125 135.886719,9.40625 135.886719,14.2597656 L135.886719,14.2871094 C135.886719,19.1816406 138.675781,22.1210938 143.310547,22.1210938 Z M143.310547,18.9902344 C141.177734,18.9902344 139.974609,17.2539062 139.974609,14.2871094 L139.974609,14.2597656 C139.974609,11.3203125 141.191406,9.55664062 143.310547,9.55664062 C145.416016,9.55664062 146.646484,11.3203125 146.646484,14.2597656 L146.646484,14.2871094 C146.646484,17.2539062 145.429688,18.9902344 143.310547,18.9902344 Z M157.466797,21.8066406 L157.466797,13.0976562 C157.466797,11.0605469 158.587891,9.734375 160.433594,9.734375 C162.320312,9.734375 163.195312,10.8554688 163.195312,12.9746094 L163.195312,21.8066406 L167.1875,21.8066406 L167.1875,12.0722656 C167.1875,8.4765625 165.382812,6.42578125 162.033203,6.42578125 C159.886719,6.42578125 158.396484,7.45117188 157.712891,9.078125 L157.466797,9.078125 L157.466797,6.75390625 L153.474609,6.75390625 L153.474609,21.8066406 L157.466797,21.8066406 Z M177.160156,22.1210938 C181.5625,22.1210938 183.503906,19.578125 183.96875,17.6914062 L183.996094,17.5546875 L180.277344,17.5546875 L180.236328,17.6367188 C179.962891,18.2109375 178.992188,19.140625 177.242188,19.140625 C175.123047,19.140625 173.796875,17.7050781 173.755859,15.2304688 L184.119141,15.2304688 L184.119141,13.9863281 C184.119141,9.43359375 181.384766,6.42578125 176.996094,6.42578125 C172.607422,6.42578125 169.804688,9.50195312 169.804688,14.2871094 L169.804688,14.3007812 C169.804688,19.1269531 172.580078,22.1210938 177.160156,22.1210938 Z M180.291016,12.7285156 L173.796875,12.7285156 C174.042969,10.5957031 175.328125,9.41992188 177.064453,9.41992188 C178.800781,9.41992188 180.044922,10.5410156 180.291016,12.7285156 Z M196.210938,15.640625 L196.210938,12.0449219 L187.119141,12.0449219 L187.119141,15.640625 L196.210938,15.640625 Z M203.927734,21.8066406 L203.927734,13.0976562 C203.927734,11.0605469 205.048828,9.734375 206.894531,9.734375 C208.78125,9.734375 209.65625,10.8554688 209.65625,12.9746094 L209.65625,21.8066406 L213.648438,21.8066406 L213.648438,12.0722656 C213.648438,8.4765625 211.84375,6.42578125 208.494141,6.42578125 C206.347656,6.42578125 204.857422,7.45117188 204.173828,9.078125 L203.927734,9.078125 L203.927734,6.75390625 L199.935547,6.75390625 L199.935547,21.8066406 L203.927734,21.8066406 Z M221.980469,22.1210938 C224.126953,22.1210938 225.658203,21.1230469 226.341797,19.4824219 L226.587891,19.4824219 L226.587891,21.8066406 L230.580078,21.8066406 L230.580078,6.75390625 L226.587891,6.75390625 L226.587891,15.4492188 C226.587891,17.4863281 225.521484,18.8125 223.552734,18.8125 C221.666016,18.8125 220.859375,17.7050781 220.859375,15.5722656 L220.859375,6.75390625 L216.867188,6.75390625 L216.867188,16.4882812 C216.867188,20.0703125 218.603516,22.1210938 221.980469,22.1210938 Z M237.189453,21.8066406 L239.992188,16.8300781 L240.238281,16.8300781 L243.054688,21.8066406 L247.470703,21.8066406 L242.699219,14.1914062 L247.443359,6.75390625 L243.095703,6.75390625 L240.429688,11.7441406 L240.183594,11.7441406 L237.517578,6.75390625 L232.9375,6.75390625 L237.695312,14.3554688 L232.978516,21.8066406 L237.189453,21.8066406 Z M256.076172,21.8613281 C256.841797,21.8613281 257.580078,21.7792969 258.072266,21.6835938 L258.072266,18.7167969 C257.689453,18.7578125 257.416016,18.7851562 256.896484,18.7851562 C255.542969,18.7851562 254.96875,18.1835938 254.96875,16.8300781 L254.96875,9.76171875 L258.072266,9.76171875 L258.072266,6.75390625 L254.96875,6.75390625 L254.96875,3.15820312 L250.935547,3.15820312 L250.935547,6.75390625 L248.611328,6.75390625 L248.611328,9.76171875 L250.935547,9.76171875 L250.935547,17.7460938 C250.935547,20.671875 252.412109,21.8613281 256.076172,21.8613281 Z" id="plone-nuxt" fill="#0095D3"></path>
            </g>
        </g>
    </g>
</svg>