<?xml version="1.0" encoding="UTF-8"?>
<svg width="267px" height="40px" viewBox="0 0 267 40" version="1.1" xmlns="http://www.w3.org/2000/svg" xmlns:xlink="http://www.w3.org/1999/xlink">
    <title>logo-light</title>
    <g id="logo-light" stroke="none" stroke-width="1" fill="none" fill-rule="evenodd">
        <g id="plone-logo" fill="#0095D3" fill-rule="nonzero">
            <ellipse id="Oval" cx="17.4998705" cy="11.5" rx="4.49996669" ry="4.5"></ellipse>
            <path d="M30.9997705,20.4984675 C30.9997705,22.9901133 28.9860354,25 26.4998038,25 C24.014595,25 21.9998372,22.9849991 21.9998372,20.4984675 C21.9998372,18.0098902 24.0227767,16 26.4998038,16 C28.9870582,15.996935 30.9997705,18.0119359 30.9997705,20.4984675 Z" id="Path"></path>
            <ellipse id="Oval" cx="17.4998705" cy="28.5" rx="4.49996669" ry="4.5"></ellipse>
            <path d="M19.999852,0 C8.95436522,0.000983139163 0.000983131886,8.95344836 0,20 C0.000983131886,31.0445854 8.95141582,39.9980337 19.999852,40 C31.0453387,39.9980337 39.9977376,31.0495011 39.9997039,20 C39.9977376,8.95344836 31.0453387,0.000983139163 19.999852,0 Z M31.2557289,31.2559603 C28.3672874,34.1404906 24.3974009,35.9180062 19.9978857,35.9189893 C15.594438,35.9180062 11.6284839,34.1375412 8.7410256,31.2559603 C5.85749978,28.3674974 4.07999733,24.3975815 4.07901419,20 C4.07999733,15.5975028 5.85946604,11.6305363 8.74200873,8.74305658 C11.6304502,5.85852627 15.5964042,4.08101067 19.9988688,4.08002753 C24.4013334,4.08101067 28.3682706,5.86147569 31.2557289,8.74305658 C34.141221,11.6315194 35.9177403,15.6014354 35.9197066,20 C35.9187235,24.4005309 34.1402379,28.3674974 31.2557289,31.2559603 Z" id="Shape"></path>
        </g>
        <path d="M54.3991406,29.3144531 C58.3229688,29.3144531 60.6745313,27.2089844 61.0846875,23.9277344 L61.0983594,23.8457031 L57.4069531,23.8457031 L57.3796094,23.9003906 C57.0241406,25.4042969 56.0534375,26.1835938 54.4128125,26.1835938 C52.28,26.1835938 51.0905469,24.5019531 51.0905469,21.453125 L51.0905469,21.4257812 C51.0905469,18.4179688 52.2663281,16.75 54.4128125,16.75 C56.1217969,16.75 57.1198438,17.7070312 57.3796094,19.1699219 L57.3932813,19.1972656 L61.1120313,19.1972656 L61.1120313,19.15625 C60.7565625,15.7929688 58.3913281,13.6191406 54.3991406,13.6191406 C49.6823438,13.6191406 47.03,16.4765625 47.03,21.4257812 L47.03,21.453125 C47.03,26.4570312 49.6960156,29.3144531 54.3991406,29.3144531 Z M68.6921094,29.3144531 C70.8385938,29.3144531 72.3698438,28.3164062 73.0534375,26.6757812 L73.2995313,26.6757812 L73.2995313,29 L77.2917188,29 L77.2917188,13.9472656 L73.2995313,13.9472656 L73.2995313,22.6425781 C73.2995313,24.6796875 72.233125,26.0058594 70.264375,26.0058594 C68.3776563,26.0058594 67.5710156,24.8984375 67.5710156,22.765625 L67.5710156,13.9472656 L63.5788281,13.9472656 L63.5788281,23.6816406 C63.5788281,27.2636719 65.3151563,29.3144531 68.6921094,29.3144531 Z M86.7721875,29.3144531 C90.6276563,29.3144531 93.3757031,27.3730469 93.3757031,24.3925781 L93.3757031,24.3789062 C93.3757031,22.1503906 91.9675,20.8925781 88.9596875,20.25 L86.4577344,19.7167969 C84.8991406,19.375 84.3385938,18.9101562 84.3385938,18.1035156 L84.3385938,18.0898438 C84.3385938,17.078125 85.3229688,16.4355469 86.7038281,16.4355469 C88.1940625,16.4355469 89.0827344,17.1875 89.3014844,17.9941406 L89.3151563,18.0625 L93.0202344,18.0625 L93.0202344,18.0078125 C92.8561719,15.5878906 90.6686719,13.6191406 86.7175,13.6191406 C82.9577344,13.6191406 80.4421094,15.5058594 80.4421094,18.3359375 L80.4421094,18.3496094 C80.4421094,20.6054688 81.8639844,22.0136719 84.7350781,22.6289062 L87.2507031,23.1621094 C88.7819531,23.5039062 89.3835156,24.0097656 89.3835156,24.8164062 L89.3835156,24.84375 C89.3835156,25.8417969 88.3444531,26.4980469 86.8132031,26.4980469 C85.2409375,26.4980469 84.3249219,25.828125 84.0104688,24.8984375 L83.983125,24.84375 L80.0592969,24.84375 L80.0729688,24.8984375 C80.3600781,27.4824219 82.6842969,29.3144531 86.7721875,29.3144531 Z M97.5241406,34.3046875 C101.242891,34.3046875 103.225313,32.9648438 104.565156,28.9863281 L109.692109,13.9472656 L105.481172,13.9472656 L102.322969,25.3496094 L102.049531,25.3496094 L98.8913281,13.9472656 L94.5026563,13.9472656 L99.7936719,29 L99.6569531,29.5742188 C99.3698438,30.75 98.5495313,31.296875 97.1276563,31.296875 C96.7585156,31.296875 96.3620313,31.2832031 96.0885938,31.2558594 L96.0885938,34.2636719 C96.5534375,34.2910156 97.0592969,34.3046875 97.5241406,34.3046875 Z M112.815156,33.9902344 L118.502656,8.19140625 L114.824922,8.19140625 L109.137422,33.9902344 L112.815156,33.9902344 Z" id="cusy" fill="#000000" fill-rule="nonzero"></path>
        <path d="M123.992158,33.796875 L123.992158,26.4003906 L124.23825,26.4003906 C125.003869,28.0410156 126.685497,29.0390625 128.749935,29.0390625 C132.56436,29.0390625 134.861218,26.1269531 134.861218,21.2871094 L134.861218,21.2597656 C134.861218,16.4609375 132.509673,13.5078125 128.749935,13.5078125 C126.617139,13.5078125 125.017541,14.4648438 124.23825,16.078125 L123.992158,16.078125 L123.992158,13.7539062 L120,13.7539062 L120,33.796875 L123.992158,33.796875 Z M127.382758,25.7304687 C125.290976,25.7304687 123.951143,24.0488281 123.951143,21.2871094 L123.951143,21.2597656 C123.951143,18.4980469 125.277305,16.8164062 127.382758,16.8164062 C129.501883,16.8164062 130.800701,18.4980469 130.800701,21.2597656 L130.800701,21.2871094 C130.800701,24.0488281 129.488211,25.7304687 127.382758,25.7304687 Z M141.74398,28.8066406 L141.74398,7.99804688 L137.751822,7.99804688 L137.751822,28.8066406 L141.74398,28.8066406 Z M152.058356,29.1210938 C156.693088,29.1210938 159.48213,26.1953125 159.48213,21.2871094 L159.48213,21.2597656 C159.48213,16.3925781 156.652072,13.4257812 152.058356,13.4257812 C147.46464,13.4257812 144.634583,16.40625 144.634583,21.2597656 L144.634583,21.2871094 C144.634583,26.1816406 147.423625,29.1210938 152.058356,29.1210938 Z M152.058356,25.9902344 C149.92556,25.9902344 148.722444,24.2539062 148.722444,21.2871094 L148.722444,21.2597656 C148.722444,18.3203125 149.939232,16.5566406 152.058356,16.5566406 C154.16381,16.5566406 155.394269,18.3203125 155.394269,21.2597656 L155.394269,21.2871094 C155.394269,24.2539062 154.177481,25.9902344 152.058356,25.9902344 Z M166.214502,28.8066406 L166.214502,20.0976562 C166.214502,18.0605469 167.335587,16.734375 169.181277,16.734375 C171.067981,16.734375 171.942975,17.8554688 171.942975,19.9746094 L171.942975,28.8066406 L175.935133,28.8066406 L175.935133,19.0722656 C175.935133,15.4765625 174.130459,13.4257812 170.780874,13.4257812 C168.634406,13.4257812 167.144182,14.4511719 166.460594,16.078125 L166.214502,16.078125 L166.214502,13.7539062 L162.222344,13.7539062 L162.222344,28.8066406 L166.214502,28.8066406 Z M185.907715,29.1210938 C190.310026,29.1210938 192.251418,26.578125 192.716259,24.6914062 L192.743602,24.5546875 L189.02488,24.5546875 L188.983864,24.6367188 C188.710429,25.2109375 187.739733,26.140625 185.989746,26.140625 C183.870621,26.140625 182.544459,24.7050781 182.503444,22.2304688 L192.866648,22.2304688 L192.866648,20.9863281 C192.866648,16.4335938 190.132293,13.4257812 185.743654,13.4257812 C181.355015,13.4257812 178.552301,16.5019531 178.552301,21.2871094 L178.552301,21.3007812 C178.552301,26.1269531 181.327671,29.1210938 185.907715,29.1210938 Z M189.038551,19.7285156 L182.544459,19.7285156 C182.790551,17.5957031 184.075698,16.4199219 185.812013,16.4199219 C187.548328,16.4199219 188.79246,17.5410156 189.038551,19.7285156 Z M204.958355,22.640625 L204.958355,19.0449219 L195.866626,19.0449219 L195.866626,22.640625 L204.958355,22.640625 Z M212.675095,28.8066406 L212.675095,20.0976562 C212.675095,18.0605469 213.796181,16.734375 215.64187,16.734375 C217.528575,16.734375 218.403568,17.8554688 218.403568,19.9746094 L218.403568,28.8066406 L222.395726,28.8066406 L222.395726,19.0722656 C222.395726,15.4765625 220.591052,13.4257812 217.241468,13.4257812 C215.094999,13.4257812 213.604776,14.4511719 212.921187,16.078125 L212.675095,16.078125 L212.675095,13.7539062 L208.682937,13.7539062 L208.682937,28.8066406 L212.675095,28.8066406 Z M230.727696,29.1210938 C232.874164,29.1210938 234.405403,28.1230469 235.088992,26.4824219 L235.335084,26.4824219 L235.335084,28.8066406 L239.327242,28.8066406 L239.327242,13.7539062 L235.335084,13.7539062 L235.335084,22.4492188 C235.335084,24.4863281 234.268685,25.8125 232.29995,25.8125 C230.413245,25.8125 229.606611,24.7050781 229.606611,22.5722656 L229.606611,13.7539062 L225.614453,13.7539062 L225.614453,23.4882812 C225.614453,27.0703125 227.350768,29.1210938 230.727696,29.1210938 Z M245.936568,28.8066406 L248.739281,23.8300781 L248.985373,23.8300781 L251.801759,28.8066406 L256.217742,28.8066406 L251.446293,21.1914062 L256.190398,13.7539062 L251.842774,13.7539062 L249.176778,18.7441406 L248.930686,18.7441406 L246.26469,13.7539062 L241.684646,13.7539062 L246.442423,21.3554688 L241.725661,28.8066406 L245.936568,28.8066406 Z M264.823147,28.8613281 C265.588766,28.8613281 266.327042,28.7792969 266.819226,28.6835938 L266.819226,25.7167969 C266.436416,25.7578125 266.162981,25.7851562 265.643453,25.7851562 C264.289948,25.7851562 263.715733,25.1835938 263.715733,23.8300781 L263.715733,16.7617188 L266.819226,16.7617188 L266.819226,13.7539062 L263.715733,13.7539062 L263.715733,10.1582031 L259.68256,10.1582031 L259.68256,13.7539062 L257.358358,13.7539062 L257.358358,16.7617188 L259.68256,16.7617188 L259.68256,24.7460938 C259.68256,27.671875 261.159111,28.8613281 264.823147,28.8613281 Z" id="plone-nuxt" fill="#0095D3" fill-rule="nonzero"></path>
    </g>
</svg>